# xmcd
#
# Track frame offsets:
#	150
#	17069
#	33557
#	61703
#
# Disc length: 2216 seconds
#
# Revision: 0
# Processed by: cddbd v1.5.2PL0 Copyright (c) Steve Scherf et al.
# Submitted via: EasyCDDAExtractor 11.0.2.1
#
DISCID=2808a604
DTITLE=Soulja Boy Tellem - Crank That (Soulja Boy) [CD-Single)
DYEAR=2008
DGENRE=R&B
TTITLE0=Crank That (Clean Version)
TTITLE1=Crank That (Jamblock Remix)
TTITLE2=Crank That (Sofresh Squad Remix)
TTITLE3=Video
EXTD=
EXTT0=
EXTT1=
EXTT2=
EXTT3=
PLAYORDER=
